<svg width="32" height="32" viewBox="0 0 32 32" fill="none" xmlns="http://www.w3.org/2000/svg">
<path d="M15.9999 4.57141C16.631 4.57141 17.1427 5.08309 17.1427 5.71427V14.8571H26.2856C26.9168 14.8571 27.4284 15.3688 27.4284 16C27.4284 16.6312 26.9168 17.1428 26.2856 17.1428H17.1427V26.2857C17.1427 26.9169 16.631 27.4286 15.9999 27.4286C15.3687 27.4286 14.857 26.9169 14.857 26.2857V17.1428H5.71415C5.08296 17.1428 4.57129 16.6312 4.57129 16C4.57129 15.3688 5.08296 14.8571 5.71415 14.8571H14.857V5.71427C14.857 5.08309 15.3687 4.57141 15.9999 4.57141Z" fill="#EDEDED"/>
</svg>
