<svg width="20" height="20" viewBox="0 0 20 20" fill="none" xmlns="http://www.w3.org/2000/svg">
<path fill-rule="evenodd" clip-rule="evenodd" d="M4.414 10.9999L18 10.9999C18.552 10.9999 19 10.5519 19 9.99989C19 9.44789 18.552 8.99989 18 8.99989L4.414 8.99989L9.025 4.38889C9.416 3.99889 9.416 3.36489 9.025 2.97489C8.635 2.58389 8.001 2.58389 7.611 2.97489L1.304 9.28089C1.301 9.28489 1.297 9.28889 1.293 9.29289C1.098 9.48789 1 9.74389 1 9.99989C1 10.2559 1.098 10.5119 1.293 10.7069C1.297 10.7109 1.301 10.7149 1.304 10.7189L7.611 17.0249C8.001 17.4159 8.635 17.4159 9.025 17.0249C9.416 16.6349 9.416 16.0009 9.025 15.6109L4.414 10.9999Z" fill="#EDEDED"/>
</svg>
