<svg width="20" height="20" viewBox="0 0 20 20" fill="none" xmlns="http://www.w3.org/2000/svg">
<path fill-rule="evenodd" clip-rule="evenodd" d="M9.98343 8.4942L16.1626 2.31505C16.5826 1.89498 17.2649 1.89498 17.685 2.31505C18.105 2.73511 18.105 3.41735 17.685 3.83742L11.5058 10.0166L17.685 16.1957C18.0962 16.606 18.0962 17.2737 17.685 17.685C17.2737 18.0962 16.606 18.0962 16.1957 17.685L10.0166 11.5058L3.83742 17.685C3.41735 18.105 2.73511 18.105 2.31505 17.685C1.89498 17.2649 1.89498 16.5826 2.31505 16.1626L8.4942 9.98343L2.31505 3.80428C1.90376 3.39396 1.90376 2.72634 2.31505 2.31505C2.72634 1.90376 3.39396 1.90376 3.80428 2.31505L9.98343 8.4942Z" fill="#808080"/>
</svg>
