<svg width="32" height="32" viewBox="0 0 32 32" fill="none" xmlns="http://www.w3.org/2000/svg">
<g filter="url(#filter0_d_755_4342)">
<path d="M11.8049 9.86192L15.3549 13.4119L15.3572 13.4114L18.5888 16.643L18.5882 16.6452L22.4716 20.5286C22.7319 20.7889 22.7319 21.211 22.4716 21.4714C22.2112 21.7317 21.7891 21.7317 21.5288 21.4714L20.2785 20.2223C18.9873 20.933 17.5206 21.3333 16.0002 21.3333C12.1213 21.3333 8.3335 18.4293 8.3335 16C8.3335 14.582 9.7903 12.8204 11.7956 11.7383L10.8621 10.8047C10.6017 10.5444 10.6017 10.1223 10.8621 9.86192C11.1224 9.60157 11.5446 9.60157 11.8049 9.86192ZM9.66683 16C9.66683 17.604 12.792 20 16.0002 20C17.1552 20 18.277 19.7264 19.2895 19.2336L17.9142 17.8568C17.4295 18.3563 16.7511 18.6667 16.0002 18.6667C14.5274 18.6667 13.3335 17.4727 13.3335 16C13.3335 15.2491 13.6439 14.5706 14.1434 14.086L12.7867 12.7305C10.9871 13.5847 9.66683 15.0893 9.66683 16ZM16.0002 10.6667C19.879 10.6667 23.6668 13.5707 23.6668 16C23.6668 16.6298 23.378 17.3321 22.8691 18.0222C22.6505 18.3185 22.2332 18.3816 21.9368 18.1631C21.6405 17.9445 21.5775 17.5271 21.796 17.2308C22.1503 16.7504 22.3335 16.3049 22.3335 16C22.3335 14.396 19.2083 12 16.0002 12C15.632 12 15.3335 11.7015 15.3335 11.3333C15.3335 10.9651 15.632 10.6667 16.0002 10.6667ZM15.0864 15.029C14.8281 15.2722 14.6668 15.6173 14.6668 16C14.6668 16.7364 15.2638 17.3333 16.0002 17.3333C16.3829 17.3333 16.728 17.1721 16.9711 16.9138L15.0864 15.029Z" fill="#808080"/>
<path d="M15.5339 13.2346L15.434 13.1347L15.4318 13.1352L11.9817 9.68514C11.6237 9.32716 11.0433 9.32716 10.6853 9.68514C10.3273 10.0431 10.3273 10.6235 10.6853 10.9815C10.6853 10.9815 10.6853 10.9815 10.6853 10.9815L11.3859 11.6821C10.4801 12.2136 9.69546 12.8791 9.11893 13.5851C8.4854 14.3608 8.0835 15.2104 8.0835 16C8.0835 17.3351 9.11044 18.7337 10.5663 19.7806C12.0348 20.8367 14.0016 21.5833 16.0002 21.5833C17.4999 21.5833 18.9475 21.2048 20.2332 20.5305L21.352 21.6482C21.352 21.6482 21.352 21.6482 21.3521 21.6483C21.71 22.0062 22.2904 22.0061 22.6483 21.6482C23.0063 21.2902 23.0063 20.7098 22.6483 20.3518L18.8649 16.5683L18.8654 16.5661L18.7656 16.4662L15.5339 13.2346ZM16.0002 19.75C14.4548 19.75 12.9194 19.1713 11.7705 18.3944C11.1968 18.0065 10.7275 17.5744 10.4041 17.1501C10.0775 16.7216 9.91683 16.3239 9.91683 16C9.91683 15.8289 9.98032 15.6059 10.1214 15.3434C10.261 15.0839 10.4685 14.8009 10.735 14.5143C11.2357 13.9759 11.9314 13.4395 12.7363 13.0335L13.7948 14.0912C13.3519 14.6026 13.0835 15.2701 13.0835 16C13.0835 17.6108 14.3893 18.9167 16.0002 18.9167C16.73 18.9167 17.3976 18.6483 17.909 18.2053L18.8586 19.156C17.9652 19.5398 16.9949 19.75 16.0002 19.75ZM23.9168 16C23.9168 14.6648 22.8899 13.2663 21.434 12.2194C19.9655 11.1633 17.9987 10.4167 16.0002 10.4167C15.4939 10.4167 15.0835 10.8271 15.0835 11.3333C15.0835 11.8396 15.4939 12.25 16.0002 12.25C17.5455 12.25 19.0809 12.8287 20.2298 13.6056C20.8035 13.9935 21.2729 14.4256 21.5962 14.8498C21.9229 15.2784 22.0835 15.6761 22.0835 16C22.0835 16.2247 21.9382 16.6168 21.5948 17.0824C21.2943 17.4899 21.381 18.0638 21.7884 18.3643C22.1959 18.6647 22.7698 18.578 23.0703 18.1706C23.5968 17.4566 23.9168 16.7028 23.9168 16ZM14.9168 16C14.9168 15.7765 14.9843 15.569 15.1003 15.3965L16.6037 16.8998C16.4311 17.0158 16.2236 17.0833 16.0002 17.0833C15.4019 17.0833 14.9168 16.5983 14.9168 16Z" stroke="black" stroke-opacity="0.12" stroke-width="0.5"/>
</g>
<defs>
<filter id="filter0_d_755_4342" x="2.8335" y="4.16666" width="26.3335" height="23" filterUnits="userSpaceOnUse" color-interpolation-filters="sRGB">
<feFlood flood-opacity="0" result="BackgroundImageFix"/>
<feColorMatrix in="SourceAlpha" type="matrix" values="0 0 0 0 0 0 0 0 0 0 0 0 0 0 0 0 0 0 127 0" result="hardAlpha"/>
<feOffset/>
<feGaussianBlur stdDeviation="2.5"/>
<feColorMatrix type="matrix" values="0 0 0 0 0 0 0 0 0 0 0 0 0 0 0 0 0 0 0.16 0"/>
<feBlend mode="normal" in2="BackgroundImageFix" result="effect1_dropShadow_755_4342"/>
<feBlend mode="normal" in="SourceGraphic" in2="effect1_dropShadow_755_4342" result="shape"/>
</filter>
</defs>
</svg>
