<svg width="32" height="32" viewBox="0 0 32 32" fill="none" xmlns="http://www.w3.org/2000/svg">
<g filter="url(#filter0_d_755_4338)">
<path d="M16.0002 10.6667C19.9962 10.6667 23.6668 13.7044 23.6668 16C23.6668 18.2956 19.9962 21.3334 16.0002 21.3334C12.0041 21.3334 8.3335 18.2956 8.3335 16C8.3335 13.7044 12.0041 10.6667 16.0002 10.6667ZM16.0002 12C12.6906 12 9.66683 14.5025 9.66683 16C9.66683 17.4976 12.6906 20 16.0002 20C19.3097 20 22.3335 17.4976 22.3335 16C22.3335 14.5025 19.3097 12 16.0002 12ZM16.0002 13.3334C17.4729 13.3334 18.6668 14.5273 18.6668 16C18.6668 17.4728 17.4729 18.6667 16.0002 18.6667C14.5274 18.6667 13.3335 17.4728 13.3335 16C13.3335 14.5273 14.5274 13.3334 16.0002 13.3334ZM16.0002 14.6667C15.2638 14.6667 14.6668 15.2636 14.6668 16C14.6668 16.7364 15.2638 17.3334 16.0002 17.3334C16.7365 17.3334 17.3335 16.7364 17.3335 16C17.3335 15.2636 16.7365 14.6667 16.0002 14.6667Z" fill="#808080"/>
<path d="M23.9168 16C23.9168 14.7329 22.9204 13.3346 21.4805 12.2714C20.0268 11.198 18.0591 10.4167 16.0002 10.4167C13.9412 10.4167 11.9735 11.198 10.5198 12.2714C9.07991 13.3346 8.0835 14.7329 8.0835 16C8.0835 17.2672 9.07991 18.6655 10.5198 19.7286C11.9735 20.802 13.9412 21.5834 16.0002 21.5834C18.0591 21.5834 20.0268 20.802 21.4805 19.7286C22.9204 18.6655 23.9168 17.2672 23.9168 16ZM9.91683 16C9.91683 15.7035 10.0703 15.3192 10.3907 14.8936C10.707 14.4736 11.1677 14.0381 11.7351 13.6437C12.8713 12.8542 14.4058 12.25 16.0002 12.25C17.5945 12.25 19.129 12.8542 20.2652 13.6437C20.8327 14.0381 21.2933 14.4736 21.6096 14.8936C21.93 15.3192 22.0835 15.7035 22.0835 16C22.0835 16.2966 21.93 16.6809 21.6096 17.1064C21.2933 17.5265 20.8327 17.962 20.2652 18.3563C19.129 19.1459 17.5945 19.75 16.0002 19.75C14.4058 19.75 12.8713 19.1459 11.7351 18.3563C11.1677 17.962 10.707 17.5265 10.3907 17.1064C10.0703 16.6809 9.91683 16.2966 9.91683 16ZM18.9168 16C18.9168 14.3892 17.611 13.0834 16.0002 13.0834C14.3893 13.0834 13.0835 14.3892 13.0835 16C13.0835 17.6109 14.3893 18.9167 16.0002 18.9167C17.611 18.9167 18.9168 17.6109 18.9168 16ZM14.9168 16C14.9168 15.4017 15.4019 14.9167 16.0002 14.9167C16.5985 14.9167 17.0835 15.4017 17.0835 16C17.0835 16.5983 16.5985 17.0834 16.0002 17.0834C15.4019 17.0834 14.9168 16.5983 14.9168 16Z" stroke="black" stroke-opacity="0.12" stroke-width="0.5"/>
</g>
<defs>
<filter id="filter0_d_755_4338" x="2.8335" y="5.16669" width="26.3335" height="21.6667" filterUnits="userSpaceOnUse" color-interpolation-filters="sRGB">
<feFlood flood-opacity="0" result="BackgroundImageFix"/>
<feColorMatrix in="SourceAlpha" type="matrix" values="0 0 0 0 0 0 0 0 0 0 0 0 0 0 0 0 0 0 127 0" result="hardAlpha"/>
<feOffset/>
<feGaussianBlur stdDeviation="2.5"/>
<feColorMatrix type="matrix" values="0 0 0 0 0 0 0 0 0 0 0 0 0 0 0 0 0 0 0.16 0"/>
<feBlend mode="normal" in2="BackgroundImageFix" result="effect1_dropShadow_755_4338"/>
<feBlend mode="normal" in="SourceGraphic" in2="effect1_dropShadow_755_4338" result="shape"/>
</filter>
</defs>
</svg>
