<svg width="32" height="32" viewBox="0 0 32 32" fill="none" xmlns="http://www.w3.org/2000/svg">
<rect width="32" height="32" rx="16" fill="#808080"/>
<path d="M9.60791 18.8799L14.1592 11.7578H15.3843V21H14.1592V13.8716L9.60791 21H8.38916V11.7578H9.60791V18.8799ZM23.249 11.7578V12.7607H18.793V21H17.5742V11.7578H23.249ZM18.5073 15.522H21.0273C21.7044 15.522 22.2757 15.6362 22.7412 15.8647C23.2067 16.089 23.5601 16.4043 23.8013 16.8105C24.0425 17.2168 24.1631 17.6929 24.1631 18.2388C24.1631 18.645 24.0954 19.0174 23.96 19.356C23.8245 19.6903 23.6235 19.9823 23.3569 20.2319C23.0903 20.4774 22.7624 20.6678 22.373 20.8032C21.9837 20.9344 21.5352 21 21.0273 21H17.5742V11.7578H18.7993V20.0034H21.0273C21.4801 20.0034 21.8462 19.9209 22.1255 19.7559C22.409 19.5866 22.6164 19.3665 22.7476 19.0957C22.8787 18.8249 22.9443 18.535 22.9443 18.2261C22.9443 17.9172 22.8787 17.6336 22.7476 17.3755C22.6164 17.1174 22.409 16.9121 22.1255 16.7598C21.8462 16.6032 21.4801 16.5249 21.0273 16.5249H18.5073V15.522Z" fill="#EDEDED"/>
</svg>
