<svg width="36" height="36" viewBox="0 0 36 36" fill="none" xmlns="http://www.w3.org/2000/svg">
<rect width="36" height="36" rx="18" fill="#808080"/>
<path d="M9.91309 18.7788L6.6123 13.7578H8.04688L10.5034 17.7632H12.2427L12.0459 18.7788H9.91309ZM10.5732 18.6836L7.88818 23H6.36475L9.79883 17.6299L10.5732 18.6836ZM12.7695 13.7578V23H11.5571V13.7578H12.7695ZM17.6699 13.7578L14.3564 18.7788H12.2871L12.0967 17.7632H13.7725L16.229 13.7578H17.6699ZM16.3877 23L13.709 18.6836L14.4897 17.6299L17.9111 23H16.3877ZM21.7197 18.7788L18.4189 13.7578H19.8535L22.3101 17.7632H24.0493L23.8525 18.7788H21.7197ZM22.3799 18.6836L19.6948 23H18.1714L21.6055 17.6299L22.3799 18.6836ZM24.5762 13.7578V23H23.3638V13.7578H24.5762ZM29.4766 13.7578L26.1631 18.7788H24.0938L23.9033 17.7632H25.5791L28.0356 13.7578H29.4766ZM28.1943 23L25.5156 18.6836L26.2964 17.6299L29.7178 23H28.1943Z" fill="#EDEDED"/>
</svg>
