<svg width="166" height="166" viewBox="0 0 166 166" fill="none" xmlns="http://www.w3.org/2000/svg">
<path fill-rule="evenodd" clip-rule="evenodd" d="M83 166C128.84 166 166 128.84 166 83C166 37.1604 128.84 0 83 0C37.1604 0 0 37.1604 0 83C0 128.84 37.1604 166 83 166Z" fill="#808080"/>
<path d="M68.249 88.1074L78.752 71.6719H81.5791V93H78.752V76.5498L68.249 93H65.4365V71.6719H68.249V88.1074ZM99.7285 71.6719V73.9863H89.4453V93H86.6328V71.6719H99.7285ZM88.7861 80.3584H94.6016C96.1641 80.3584 97.4824 80.6221 98.5566 81.1494C99.6309 81.667 100.446 82.3945 101.003 83.332C101.56 84.2695 101.838 85.3682 101.838 86.6279C101.838 87.5654 101.682 88.4248 101.369 89.2061C101.057 89.9775 100.593 90.6514 99.9775 91.2275C99.3623 91.7939 98.6055 92.2334 97.707 92.5459C96.8086 92.8486 95.7734 93 94.6016 93H86.6328V71.6719H89.46V90.7002H94.6016C95.6465 90.7002 96.4912 90.5098 97.1357 90.1289C97.79 89.7383 98.2686 89.2305 98.5713 88.6055C98.874 87.9805 99.0254 87.3115 99.0254 86.5986C99.0254 85.8857 98.874 85.2314 98.5713 84.6357C98.2686 84.04 97.79 83.5664 97.1357 83.2148C96.4912 82.8535 95.6465 82.6729 94.6016 82.6729H88.7861V80.3584Z" fill="white"/>
</svg>
