<svg width="20" height="20" viewBox="0 0 20 20" fill="none" xmlns="http://www.w3.org/2000/svg">
<path d="M7.12132 8.94975C6.7308 8.55923 6.09763 8.55923 5.70711 8.94975C5.31658 9.34028 5.31658 9.97344 5.70711 10.364L8.53553 13.1924C8.92606 13.5829 9.55922 13.5829 9.94975 13.1924L14.1924 8.94975C14.5829 8.55923 14.5829 7.92606 14.1924 7.53554C13.8019 7.14502 13.1687 7.14502 12.7782 7.53554L9.24264 11.0711L7.12132 8.94975Z" fill="#EDEDED"/>
<path fill-rule="evenodd" clip-rule="evenodd" d="M20 10C20 15.5228 15.5228 20 10 20C4.47715 20 0 15.5228 0 10C0 4.47715 4.47715 0 10 0C15.5228 0 20 4.47715 20 10ZM18 10C18 14.4183 14.4183 18 10 18C5.58172 18 2 14.4183 2 10C2 5.58172 5.58172 2 10 2C14.4183 2 18 5.58172 18 10Z" fill="#EDEDED"/>
</svg>
